<?xml version="1.0" standalone="no"?>
<!DOCTYPE svg PUBLIC "-//W3C//DTD SVG 20010904//EN"
 "http://www.w3.org/TR/2001/REC-SVG-20010904/DTD/svg10.dtd">
<svg version="1.0" xmlns="http://www.w3.org/2000/svg"
 width="1024.000000pt" height="1024.000000pt" viewBox="0 0 1024.000000 1024.000000"
 preserveAspectRatio="xMidYMid meet">
<metadata>
Created by potrace 1.14, written by Peter Selinger 2001-2017
</metadata>
<g transform="translate(0.000000,1024.000000) scale(0.100000,-0.100000)"
fill="#000000" stroke="none">
<path d="M5075 9212 c-104 -10 -187 -57 -255 -143 -74 -93 -74 -99 -72 -656
l3 -493 -713 -1 c-392 0 -726 -3 -743 -5 -50 -8 -148 -59 -188 -98 -105 -104
-134 -268 -73 -404 36 -79 113 -152 194 -183 l57 -23 728 -1 c400 -1 730 -5
734 -8 3 -4 7 -316 9 -694 4 -1101 15 -3604 19 -4403 2 -404 6 -754 10 -778
22 -162 182 -295 355 -294 175 1 321 128 347 302 5 30 8 204 7 385 -2 182 -5
958 -8 1725 -4 767 -9 1927 -12 2578 -3 650 -2 1182 3 1183 4 0 348 2 763 3
838 3 792 -1 890 71 219 161 182 496 -68 613 l-57 27 -660 3 c-363 1 -709 3
-770 5 l-109 2 -2 485 c-2 504 -4 531 -46 613 -60 118 -213 202 -343 189z"/>
<path d="M6140 6229 c-110 -21 -208 -99 -258 -207 l-27 -57 -3 -1839 c-3
-2042 -7 -1909 64 -2013 39 -57 115 -114 184 -138 45 -16 160 -22 180 -10 5 3
19 8 30 10 108 21 225 151 248 276 13 69 7 3687 -6 3726 -60 182 -230 285
-412 252z"/>
<path d="M3916 6149 c-120 -44 -201 -135 -229 -255 -20 -85 -18 -3676 2 -3743
50 -172 226 -283 399 -253 124 22 212 89 266 202 l31 65 3 1851 c2 1705 1
1854 -15 1900 -34 103 -95 171 -193 217 -80 38 -186 45 -264 16z"/>
<path d="M7270 5353 c-161 -20 -273 -113 -321 -268 -10 -31 -13 -240 -13 -885
-1 -465 2 -870 7 -900 11 -74 37 -130 87 -184 140 -152 362 -159 513 -17 48
46 83 105 98 167 17 75 17 1765 -1 1819 -33 102 -88 174 -170 223 -55 32 -143
52 -200 45z"/>
<path d="M2819 5106 c-31 -12 -70 -32 -87 -44 -68 -49 -125 -143 -138 -227 -9
-61 -9 -1714 0 -1770 16 -96 96 -205 186 -250 76 -38 146 -48 231 -33 148 27
264 148 286 299 5 30 8 434 8 899 -1 779 -3 849 -19 901 -61 192 -285 300
-467 225z"/>
</g>
</svg>
